<svg xmlns="http://www.w3.org/2000/svg" width="210" height="42" viewBox="0 0 210 42"><g><g><g><path fill="#fff" d="M1.457 35.124V3.716h33.997v31.408z"/></g><g><path fill="#fa5852" d="M23.213 28.194l.02 1.866c0 .152-.082.23-.242.23h-1.128c-.173 0-.261-.078-.261-.23v-4.459c0-.164.088-.247.261-.247h1.269c.16 0 .242.083.242.247v.4c0 .24.156.563.463.963.306.397.618.727.926.98.306.253.723.475 1.24.66.514.182 1.08.275 1.681.275 1.029 0 1.846-.205 2.428-.61.58-.405.875-.975.875-1.696 0-.417-.165-.78-.493-1.076-.326-.297-.756-.538-1.279-.715a19.882 19.882 0 0 0-1.742-.496 30.36 30.36 0 0 1-1.913-.523 10.548 10.548 0 0 1-1.743-.705 3.46 3.46 0 0 1-1.28-1.144 2.805 2.805 0 0 1-.352-.74.329.329 0 0 1-.124.02h-4.653c-.16 0-.242-.077-.242-.229v-.971c0-.152.081-.23.242-.23h1.35v-9.49h-.02L14.91 19.27c-.16.38-.458.571-.886.571s-.726-.192-.886-.571L9.31 10.275h-.04v9.49h1.35c.174 0 .262.077.262.229v.971c0 .152-.088.23-.262.23H5.987c-.174 0-.262-.078-.262-.23v-.971c0-.152.088-.23.262-.23h1.531V8.942H5.987c-.174 0-.262-.077-.262-.23v-.97c0-.153.088-.23.262-.23h3.102c.454 0 .773.218.947.649l3 6.86.947 2.4h.081c.375-.986.687-1.782.927-2.362l3.021-6.898c.174-.43.499-.649.966-.649h3.083c.16 0 .242.077.242.23v.97c0 .153-.082.23-.242.23H20.51v10.824h1.558c.1-.875.522-1.624 1.256-2.225.848-.695 2.003-1.048 3.433-1.048.902 0 1.695.127 2.357.376a3.9 3.9 0 0 1 1.632 1.13l-.04-1.182c0-.152.088-.228.262-.228h1.127c.16 0 .242.076.242.228v4.155c0 .151-.081.228-.242.228h-1.269c-.16 0-.241-.077-.241-.228v-.534c0-.519-.312-1.051-.927-1.582-.614-.53-1.53-.8-2.72-.8-.88 0-1.603.202-2.145.6-.54.399-.815.915-.815 1.534 0 .444.17.828.504 1.143.334.317.774.573 1.31.763.535.19 1.131.366 1.771.524.638.157 1.289.333 1.934.524.64.189 1.237.42 1.773.686.533.265.974.634 1.309 1.096.334.462.503 1.017.503 1.648 0 1.114-.427 2.043-1.269 2.764-.841.72-2.115 1.085-3.786 1.085-1.23 0-2.26-.237-3.062-.705-.801-.466-1.39-.979-1.751-1.523l-.001-.001zm-3.874 13.549c.014-1.074.468-2.082 1.278-2.84a4.475 4.475 0 0 1 3.074-1.193h11.187c1.014 0 1.97-.376 2.692-1.06.722-.682 1.12-1.587 1.12-2.546V.257H-.013v33.847c0 .96.398 1.864 1.12 2.547a3.896 3.896 0 0 0 2.691 1.06h11.187c1.16 0 2.252.423 3.075 1.192.81.758 1.264 1.766 1.278 2.84z"/></g><g><path fill="#273044" d="M61.791 24.45v-8.341l-3.747 5.685h-.084l-3.726-5.644v8.3h-3.978V9.925h4.292l3.496 5.623 3.496-5.623h4.292V24.45zm11.486-5.727h3.287l-1.633-4.13zm5.527 5.727l-1.067-2.594h-5.653l-1.047 2.594h-4.27L73.004 9.82h3.915L83.16 24.45zm21.65 0V13.452h-4.396V9.925h12.854v3.527h-4.396V24.45zm10.084 0V9.925h11.787v3.424h-7.767v2.2h7.034v3.174h-7.034v2.303h7.872v3.424zm17.726-7.553h2.68c1.381 0 2.177-.664 2.177-1.764 0-1.14-.837-1.722-2.198-1.722h-2.659zm4.731 7.553l-2.951-4.4h-1.78v4.4h-4.062V9.925h6.93c2.24 0 3.79.581 4.773 1.556.859.851 1.299 1.971 1.299 3.445 0 2.22-1.194 3.693-3.015 4.46l3.496 5.064zm25.594 0V11.44h-4.92V9.925h11.515v1.515h-4.92v13.01zm25.913-1.515h3.434c3.705 0 6.07-2.49 6.07-5.748 0-3.216-2.365-5.747-6.07-5.747h-3.434zm-1.654 1.515V9.925h5.088c4.605 0 7.787 3.133 7.787 7.262 0 4.088-3.182 7.263-7.787 7.263zm19.053 0v-5.748l-6.092-8.777h2.01l4.94 7.262 4.983-7.262h1.926l-6.092 8.756v5.769zm-61.008-2.117l1.026-1.203c1.528 1.37 2.994 2.054 5.025 2.054 1.967 0 3.265-1.038 3.265-2.51 0-1.35-.732-2.117-3.81-2.76-3.37-.727-4.92-1.805-4.92-4.233 0-2.283 2.031-3.963 4.815-3.963 2.136 0 3.664.601 5.15 1.784l-.962 1.266c-1.361-1.1-2.722-1.577-4.23-1.577-1.905 0-3.119 1.037-3.119 2.386 0 1.37.754 2.137 3.978 2.822 3.266.705 4.773 1.888 4.773 4.15 0 2.49-2.093 4.108-5.003 4.108-2.324 0-4.23-.768-5.988-2.324zm26.453-12.408H169v8.341c0 3.134 1.675 4.897 4.48 4.897 2.701 0 4.418-1.618 4.418-4.793V9.925h1.654v8.32c0 4.234-2.45 6.433-6.113 6.433-3.622 0-6.093-2.2-6.093-6.308zM82.905 22.292l2.26-2.677c1.445 1.141 3.057 1.743 4.753 1.743 1.089 0 1.675-.373 1.675-1.037 0-.602-.482-.934-2.47-1.39-3.12-.706-5.528-1.578-5.528-4.607 0-2.697 2.157-4.648 5.674-4.648 2.491 0 4.438.664 6.03 1.93l-2.031 2.842c-1.34-.933-2.806-1.431-4.104-1.431-.984 0-1.465.415-1.465.975 0 .664.502.955 2.533 1.411 3.37.726 5.464 1.805 5.464 4.565 0 2.967-2.366 4.73-5.925 4.73-2.596 0-5.066-.809-6.866-2.406z"/></g></g></g></svg>